<svg xmlns="http://www.w3.org/2000/svg" viewBox="0 0 108 108" width="108" height="108">
  <!-- Solid Background 
  <rect width="108" height="108" fill="#ffffff" />
  -->

  <!-- Minor Grid (every 2 units) -->
  <path d="M 2 0 V 108 M 0 2 H 108 M 4 0 V 108 M 0 4 H 108 M 6 0 V 108 M 0 6 H 108 M 8 0 V 108 M 0 8 H 108 M 12 0 V 108 M 0 12 H 108 M 14 0 V 108 M 0 14 H 108 M 16 0 V 108 M 0 16 H 108 M 18 0 V 108 M 0 18 H 108 M 22 0 V 108 M 0 22 H 108 M 24 0 V 108 M 0 24 H 108 M 26 0 V 108 M 0 26 H 108 M 28 0 V 108 M 0 28 H 108 M 32 0 V 108 M 0 32 H 108 M 34 0 V 108 M 0 34 H 108 M 36 0 V 108 M 0 36 H 108 M 38 0 V 108 M 0 38 H 108 M 42 0 V 108 M 0 42 H 108 M 44 0 V 108 M 0 44 H 108 M 46 0 V 108 M 0 46 H 108 M 48 0 V 108 M 0 48 H 108 M 52 0 V 108 M 0 52 H 108 M 56 0 V 108 M 0 56 H 108 M 58 0 V 108 M 0 58 H 108 M 62 0 V 108 M 0 62 H 108 M 64 0 V 108 M 0 64 H 108 M 66 0 V 108 M 0 66 H 108 M 68 0 V 108 M 0 68 H 108 M 72 0 V 108 M 0 72 H 108 M 74 0 V 108 M 0 74 H 108 M 76 0 V 108 M 0 76 H 108 M 78 0 V 108 M 0 78 H 108 M 82 0 V 108 M 0 82 H 108 M 84 0 V 108 M 0 84 H 108 M 86 0 V 108 M 0 86 H 108 M 88 0 V 108 M 0 88 H 108 M 92 0 V 108 M 0 92 H 108 M 94 0 V 108 M 0 94 H 108 M 96 0 V 108 M 0 96 H 108 M 98 0 V 108 M 0 98 H 108 M 102 0 V 108 M 0 102 H 108 M 104 0 V 108 M 0 104 H 108 M 106 0 V 108 M 0 106 H 108" fill="none" stroke="#e2e8f0" stroke-width="0.2" />

  <!-- Major Grid (every 10 units) -->
  <path d="M 10 0 V 108 M 0 10 H 108 M 20 0 V 108 M 0 20 H 108 M 30 0 V 108 M 0 30 H 108 M 40 0 V 108 M 0 40 H 108 M 50 0 V 108 M 0 50 H 108 M 60 0 V 108 M 0 60 H 108 M 70 0 V 108 M 0 70 H 108 M 80 0 V 108 M 0 80 H 108 M 90 0 V 108 M 0 90 H 108 M 100 0 V 108 M 0 100 H 108" fill="none" stroke="#94a3b8" stroke-width="0.3" />

  <!-- Center Crosshair and Corner Diagonals -->
  <path d="M 54 0 V 108 M 0 54 H 108" fill="none" stroke="#ef4444" stroke-width="0.4" />
  <path d="M 0 0 L 108 108 M 0 108 L 108 0" fill="none" stroke="#ef4444" stroke-width="0.2" stroke-opacity="0.5" />

  <!-- Android Safe Zones -->
  <rect x="18" y="18" width="72" height="72" fill="none" stroke="#10b981" stroke-width="0.5" stroke-dasharray="1 1" />
  <circle cx="54" cy="54" r="36" fill="none" stroke="#10b981" stroke-width="0.5" stroke-dasharray="1 1" />
  <circle cx="54" cy="54" r="54" fill="none" stroke="#3b82f6" stroke-width="0.5" stroke-dasharray="1 1" />

  <!-- Baked Coordinate Digits (No <text> tags used) 
  <path d="M 9.1 1.5 v 2.4 M 10.3 1.5 h 1.2 v 2.4 h -1.2 Z M 9.1 104 v 2.4 M 10.3 104 h 1.2 v 2.4 h -1.2 Z M 2.1 8.8 v 2.4 M 3.3 8.8 h 1.2 v 2.4 h -1.2 Z M 103.6 8.8 v 2.4 M 104.8 8.8 h 1.2 v 2.4 h -1.2 Z M 18.5 1.5 h 1.2 v 1.2 h -1.2 v 1.2 h 1.2 M 20.3 1.5 h 1.2 v 2.4 h -1.2 Z M 18.5 104 h 1.2 v 1.2 h -1.2 v 1.2 h 1.2 M 20.3 104 h 1.2 v 2.4 h -1.2 Z M 1.5 18.8 h 1.2 v 1.2 h -1.2 v 1.2 h 1.2 M 3.3 18.8 h 1.2 v 2.4 h -1.2 Z M 103 18.8 h 1.2 v 1.2 h -1.2 v 1.2 h 1.2 M 104.8 18.8 h 1.2 v 2.4 h -1.2 Z M 28.5 1.5 h 1.2 v 1.2 h -1.2 m 1.2 0 v 1.2 h -1.2 M 30.3 1.5 h 1.2 v 2.4 h -1.2 Z M 28.5 104 h 1.2 v 1.2 h -1.2 m 1.2 0 v 1.2 h -1.2 M 30.3 104 h 1.2 v 2.4 h -1.2 Z M 1.5 28.8 h 1.2 v 1.2 h -1.2 m 1.2 0 v 1.2 h -1.2 M 3.3 28.8 h 1.2 v 2.4 h -1.2 Z M 103 28.8 h 1.2 v 1.2 h -1.2 m 1.2 0 v 1.2 h -1.2 M 104.8 28.8 h 1.2 v 2.4 h -1.2 Z M 38.5 1.5 v 1.2 h 1.2 m 0 -1.2 v 2.4 M 40.3 1.5 h 1.2 v 2.4 h -1.2 Z M 38.5 104 v 1.2 h 1.2 m 0 -1.2 v 2.4 M 40.3 104 h 1.2 v 2.4 h -1.2 Z M 1.5 38.8 v 1.2 h 1.2 m 0 -1.2 v 2.4 M 3.3 38.8 h 1.2 v 2.4 h -1.2 Z M 103 38.8 v 1.2 h 1.2 m 0 -1.2 v 2.4 M 104.8 38.8 h 1.2 v 2.4 h -1.2 Z M 49.7 1.5 h -1.2 v 1.2 h 1.2 v 1.2 h -1.2 M 50.3 1.5 h 1.2 v 2.4 h -1.2 Z M 49.7 104 h -1.2 v 1.2 h 1.2 v 1.2 h -1.2 M 50.3 104 h 1.2 v 2.4 h -1.2 Z M 2.7 48.8 h -1.2 v 1.2 h 1.2 v 1.2 h -1.2 M 3.3 48.8 h 1.2 v 2.4 h -1.2 Z M 104.2 48.8 h -1.2 v 1.2 h 1.2 v 1.2 h -1.2 M 104.8 48.8 h 1.2 v 2.4 h -1.2 Z M 59.7 1.5 h -1.2 v 2.4 h 1.2 v -1.2 h -1.2 M 60.3 1.5 h 1.2 v 2.4 h -1.2 Z M 59.7 104 h -1.2 v 2.4 h 1.2 v -1.2 h -1.2 M 60.3 104 h 1.2 v 2.4 h -1.2 Z M 2.7 58.8 h -1.2 v 2.4 h 1.2 v -1.2 h -1.2 M 3.3 58.8 h 1.2 v 2.4 h -1.2 Z M 104.2 58.8 h -1.2 v 2.4 h 1.2 v -1.2 h -1.2 M 104.8 58.8 h 1.2 v 2.4 h -1.2 Z M 68.5 1.5 h 1.2 v 2.4 M 70.3 1.5 h 1.2 v 2.4 h -1.2 Z M 68.5 104 h 1.2 v 2.4 M 70.3 104 h 1.2 v 2.4 h -1.2 Z M 1.5 68.8 h 1.2 v 2.4 M 3.3 68.8 h 1.2 v 2.4 h -1.2 Z M 103 68.8 h 1.2 v 2.4 M 104.8 68.8 h 1.2 v 2.4 h -1.2 Z M 78.5 1.5 h 1.2 v 2.4 h -1.2 Z M 78.5 2.7 h 1.2 M 80.3 1.5 h 1.2 v 2.4 h -1.2 Z M 78.5 104 h 1.2 v 2.4 h -1.2 Z M 78.5 105.2 h 1.2 M 80.3 104 h 1.2 v 2.4 h -1.2 Z M 1.5 78.8 h 1.2 v 2.4 h -1.2 Z M 1.5 80 h 1.2 M 3.3 78.8 h 1.2 v 2.4 h -1.2 Z M 103 78.8 h 1.2 v 2.4 h -1.2 Z M 103 80 h 1.2 M 104.8 78.8 h 1.2 v 2.4 h -1.2 Z M 89.7 3.9 v -2.4 h -1.2 v 1.2 h 1.2 M 90.3 1.5 h 1.2 v 2.4 h -1.2 Z M 89.7 106.4 v -2.4 h -1.2 v 1.2 h 1.2 M 90.3 104 h 1.2 v 2.4 h -1.2 Z M 2.7 91.2 v -2.4 h -1.2 v 1.2 h 1.2 M 3.3 88.8 h 1.2 v 2.4 h -1.2 Z M 104.2 91.2 v -2.4 h -1.2 v 1.2 h 1.2 M 104.8 88.8 h 1.2 v 2.4 h -1.2 Z M 98.2 1.5 v 2.4 M 99.4 1.5 h 1.2 v 2.4 h -1.2 Z M 101.2 1.5 h 1.2 v 2.4 h -1.2 Z M 98.2 104 v 2.4 M 99.4 104 h 1.2 v 2.4 h -1.2 Z M 101.2 104 h 1.2 v 2.4 h -1.2 Z M 2.1 98.8 v 2.4 M 3.3 98.8 h 1.2 v 2.4 h -1.2 Z M 5.1 98.8 h 1.2 v 2.4 h -1.2 Z M 102.1 98.8 v 2.4 M 103.3 98.8 h 1.2 v 2.4 h -1.2 Z M 105.1 98.8 h 1.2 v 2.4 h -1.2 Z M 56 55 h -1 v 1 h 1 v 1 h -1 M 56.5 55 v 1 h 1 m 0 -1 v 2" fill="none" stroke="#0f172a" stroke-width="0.3" stroke-linecap="round" stroke-linejoin="round" />
 -->
</svg>
