<?xml version="1.0" encoding="UTF-8" standalone="no"?>
<!-- Generator: Adobe Illustrator 16.2.0, SVG Export Plug-In . SVG Version: 6.00 Build 0)  -->

<svg
   xmlns:dc="http://purl.org/dc/elements/1.1/"
   xmlns:cc="http://creativecommons.org/ns#"
   xmlns:rdf="http://www.w3.org/1999/02/22-rdf-syntax-ns#"
   xmlns:svg="http://www.w3.org/2000/svg"
   xmlns="http://www.w3.org/2000/svg"
   xmlns:xlink="http://www.w3.org/1999/xlink"
   xmlns:sodipodi="http://sodipodi.sourceforge.net/DTD/sodipodi-0.dtd"
   xmlns:inkscape="http://www.inkscape.org/namespaces/inkscape"
   version="1.1"
   id="svg2"
   sodipodi:docname="omn_ic_adaptive.svg"
   inkscape:export-ydpi="80"
   inkscape:export-filename="/home/mvb/tmp/git/lab/Android/My_icons/MVB_logo/mvb_logo_512.png"
   inkscape:export-xdpi="80"
   inkscape:version="0.92.5 (2060ec1f9f, 2020-04-08)"
   x="0px"
   y="0px"
   width="576.5"
   height="576.5"
   viewBox="0 0 576.49999 576.49999"
   enable-background="new 0 0 576 576"
   xml:space="preserve"><g
     inkscape:groupmode="layer"
     id="layer3"
     inkscape:label="BG"
     style="display:inline"
     transform="translate(0,0.5)"><g
       id="g5414"
       transform="translate(0,-0.5)"><rect
         style="fill:#fff49d"
         y="0"
         height="576.5"
         width="576.5"
         x="0"
         id="background" /><path
         style="fill:#1e1e1c"
         inkscape:connector-curvature="0"
         d="m 326.347,242.433 -19.787,89.938 h -74.948 l 20.387,-89.938 z M 440.869,204.06 h -63.558 l 19.785,-89.339 H 355.125 L 334.74,204.06 h -74.349 l 19.786,-89.339 h -42.57 l -20.388,89.339 h -63.557 l -8.395,38.374 h 63.558 l -19.787,89.938 h -63.556 l -8.395,37.775 h 63.557 l -19.786,89.938 h 42.57 l 19.787,-89.938 h 74.949 l -19.786,89.938 h 41.971 l 19.787,-89.938 h 64.156 l 8.395,-37.775 h -64.156 l 20.385,-89.938 h 63.557 z"
         id="hashtag" /><g
         id="lines"><line
           style="fill:none;stroke:#1e1e1c;stroke-width:1.34669995"
           y2="139.401"
           x2="571.06598"
           y1="139.401"
           x1="7"
           id="line4194" /><line
           style="fill:none;stroke:#1e1e1c;stroke-width:1.34669995"
           y2="238.42599"
           x2="571.06598"
           y1="238.42599"
           x1="7"
           id="line4196" /><line
           style="fill:none;stroke:#1e1e1c;stroke-width:1.34669995"
           y2="337.453"
           x2="571.06598"
           y1="337.453"
           x1="7"
           id="line4198" /><line
           style="fill:none;stroke:#1e1e1c;stroke-width:1.34669995"
           y2="436.47601"
           x2="571.06598"
           y1="436.47601"
           x1="7"
           id="line4200" /><line
           style="fill:none;stroke:#1e1e1c;stroke-width:1.34669995"
           y2="535.5"
           x2="571.06598"
           y1="535.5"
           x1="7"
           id="line4202" /><line
           style="fill:none;stroke:#1e1e1c;stroke-width:1.34669995"
           y2="40.375999"
           x2="571.06598"
           y1="40.375999"
           x1="7"
           id="line4204" /></g></g></g>
</svg>