<?xml version="1.0" encoding="UTF-8" standalone="no"?>
<!-- Generator: Adobe Illustrator 16.2.0, SVG Export Plug-In . SVG Version: 6.00 Build 0)  -->

<svg
   xmlns:dc="http://purl.org/dc/elements/1.1/"
   xmlns:cc="http://creativecommons.org/ns#"
   xmlns:rdf="http://www.w3.org/1999/02/22-rdf-syntax-ns#"
   xmlns:svg="http://www.w3.org/2000/svg"
   xmlns="http://www.w3.org/2000/svg"
   xmlns:xlink="http://www.w3.org/1999/xlink"
   xmlns:sodipodi="http://sodipodi.sourceforge.net/DTD/sodipodi-0.dtd"
   xmlns:inkscape="http://www.inkscape.org/namespaces/inkscape"
   version="1.1"
   id="svg2"
   sodipodi:docname="omn_ic_adaptive.svg"
   inkscape:export-ydpi="80"
   inkscape:export-filename="/home/mvb/tmp/git/lab/Android/My_icons/MVB_logo/mvb_logo_512.png"
   inkscape:export-xdpi="80"
   inkscape:version="0.92.5 (2060ec1f9f, 2020-04-08)"
   x="0px"
   y="0px"
   width="576.5"
   height="576.5"
   viewBox="0 0 576.49999 576.49999"
   enable-background="new 0 0 576 576"
   xml:space="preserve"><g
     inkscape:groupmode="layer"
     id="layer1"
     inkscape:label="FG"
     style="display:inline"
     transform="translate(0,0.5)"><polygon
       id="polygon4190-3"
       points="270.045,360.7 269.15,359.667 136.5,480.5 230.922,456.752 330.136,429.934 329.24,428.898 550,326.828 550,227.344 "
       style="fill:#ada870;fill-opacity:0.4554"
       transform="translate(4.788662,29.46426)" /><g
       id="g5069"><polygon
         transform="matrix(0.92425927,0,0,0.92425927,-31.018223,32.532836)"
         id="polygon4206"
         points="351.563,389.625 267.616,325.713 189.576,514.073 "
         style="fill:#ffffff" /><polygon
         transform="matrix(0.92425927,0,0,0.92425927,-31.018223,32.532836)"
         id="polygon4208"
         points="351.563,389.625 267.616,325.713 189.576,514.073 "
         style="fill:none;stroke:#1e1e1c;stroke-width:1.79999995" /><g
         transform="matrix(0.92425927,0,0,0.92425927,-31.018223,32.532836)"
         id="g4210"><path
           id="path4218"
           d="m 437.585,106.752 c 0,0 -16.055,20.926 4.87,36.982 l 39.39,30.226 c 0,0 20.927,16.058 36.984,-4.868 l 46.282,-60.317 c 0,0 16.057,-20.926 -4.87,-36.982 l -39.39,-30.226 c 0,0 -20.924,-16.058 -36.984,4.867 z"
           inkscape:connector-curvature="0"
           style="fill:#dc9bc0" /><path
           id="path4220"
           d="m 437.585,106.752 c 0,0 -16.055,20.926 4.87,36.982 l 39.39,30.226 c 0,0 20.927,16.058 36.984,-4.868 l 46.282,-60.317 c 0,0 16.057,-20.926 -4.87,-36.982 l -39.39,-30.226 c 0,0 -20.924,-16.058 -36.984,4.867 z"
           inkscape:connector-curvature="0"
           style="fill:none;stroke:#1e1e1c;stroke-width:1.79999995" /></g><rect
         id="rect4222"
         height="305.13586"
         width="94.654495"
         transform="rotate(-142.49987)"
         y="-133.54153"
         x="-470.75757"
         style="fill:#526e7f" /><rect
         id="rect4224"
         height="305.13586"
         width="94.654495"
         transform="rotate(-142.49987)"
         y="-133.54153"
         x="-470.75757"
         style="fill:none;stroke:#1e1e1c;stroke-width:1.66376734" /><rect
         id="rect4226"
         height="303.27151"
         width="67.945488"
         transform="rotate(-142.49987)"
         y="-131.67839"
         x="-455.34811"
         style="fill:#83afcd" /><rect
         id="rect4228"
         height="303.25214"
         width="26.727718"
         transform="rotate(-142.50442)"
         y="-131.72311"
         x="-421.97479"
         style="fill:#c1d6e7" /><polygon
         transform="matrix(0.92425927,0,0,0.92425927,-31.018223,32.532836)"
         id="polygon4230"
         points="270.595,451.829 228.687,419.673 189.575,514.076 "
         style="fill:#626261" /><polygon
         transform="matrix(0.92425927,0,0,0.92425927,-31.018223,32.532836)"
         id="polygon4232"
         points="270.595,451.829 228.687,419.673 189.575,514.076 "
         style="fill:none;stroke:#1e1e1c;stroke-width:1.79999995" /><polygon
         transform="matrix(0.92425927,0,0,0.92425927,-31.018223,32.532836)"
         id="polygon4234"
         points="245.896,423.55 240.4,418.665 195.219,506.585 "
         style="fill:#ffffff" /><rect
         id="rect4236"
         height="72.706413"
         width="109.27312"
         transform="rotate(-142.49639)"
         y="98.909431"
         x="-479.31293"
         style="fill:#848484" /><rect
         id="rect4238"
         height="72.706413"
         width="109.27312"
         transform="rotate(-142.49639)"
         y="98.909431"
         x="-479.31293"
         style="fill:none;stroke:#1e1e1c;stroke-width:1.66363525" /><rect
         id="rect4240"
         height="67.768021"
         width="75.495293"
         transform="rotate(-142.49987)"
         y="101.70558"
         x="-452.57495"
         style="fill:#c4c4c4" /><rect
         id="rect4242"
         height="67.764488"
         width="29.340982"
         transform="rotate(-142.49639)"
         y="101.71606"
         x="-414"
         style="fill:#ffffff" /></g></g><g
     inkscape:groupmode="layer"
     id="layer6"
     inkscape:label="F-Droid"
     style="display:inline"
     transform="translate(0,-143.5)"><text x="330" y="610" font-family="'Arial', sans-serif" font-weight="900" font-size="164px" fill="#0f0fc8" letter-spacing="-5">Go</text></g>
</svg>